# xmcd
#
# Track frame offsets:
#	150
#	15538
#	29983
#	49499
#	67424
#	82073
#	94675
#	104897
#	124895
#	137089
#
# Disc length: 2004 seconds
#
# Revision: 0
# Processed by: cddbd v1.5.2PL0 Copyright (c) Steve Scherf et al.
# Submitted via: dBpowerAMP V4.0
#
DISCID=9f07d20a
DTITLE=Suzan Kardeþ - Bekriya cd 2
DYEAR=1900
DGENRE=
TTITLE0=Bashal
TTITLE1=Na Kray Sela Cacava Meyhana
TTITLE2=Roka Mandolina
TTITLE3=Selanik Turkusu
TTITLE4=Na Sirce Mi Leji Mila Mamo
TTITLE5=Svite Devoycina
TTITLE6=Manolya
TTITLE7=Kafu Mi Draga Uspeci
TTITLE8=Sendeki Kaslar
TTITLE9=Cal Para
EXTD=
EXTT0=
EXTT1=
EXTT2=
EXTT3=
EXTT4=
EXTT5=
EXTT6=
EXTT7=
EXTT8=
EXTT9=
PLAYORDER=
